<?xml version="1.0" encoding="utf-8"?>
<!-- Generator: Adobe Illustrator 25.2.0, SVG Export Plug-In . SVG Version: 6.00 Build 0)  -->
<svg version="1.1" id="NPO_RD1_Logo_RGB" xmlns="http://www.w3.org/2000/svg" xmlns:xlink="http://www.w3.org/1999/xlink" x="0px"
	 y="0px" viewBox="0 0 187.1 124.7" style="enable-background:new 0 0 187.1 124.7;" xml:space="preserve">
<style type="text/css">
	.st0{fill:#E6E6E6;}
	.st1{fill:#003576;}
	.st2{fill:#FFFFFF;}
</style>
<path class="st0" d="M64.3,47.6c1,1,1,2-0.2,3.1L62,52.9C60.9,54,59.9,54,58.9,53l-2.5-2.4c-1-1-1-2,0.2-3.1l2.1-2.1
	c1.1-1.2,2.1-1.2,3.1-0.2L64.3,47.6z M74.6,32.4c-1-1-2-1-3.1,0.2l-2.1,2.1c-1.1,1.1-1.2,2.1-0.2,3.1l2.4,2.5c1,1,2,1,3.1-0.2
	l2.1-2.1c1.1-1.2,1.1-2.1,0.1-3.1L74.6,32.4z M112,67.7l-33.5,33.5c-3.4,3.4-7.2,3.4-10.6,0L34.4,67.7c-3.4-3.4-3.4-7.2,0-10.6
	l33.5-33.5c3.4-3.4,7.2-3.4,10.6,0L112,57.1C115.3,60.4,115.3,64.3,112,67.7z M56.9,60.9l-5.4-5.4c-2.5-2.5-5.5-2.6-8.4,0.3l-2,2
	c-2.8,2.8-2.8,5.9-0.3,8.4l5.4,5.4c0.6,0.8,1.8,0.9,2.5,0.3c0.1-0.1,0.1-0.1,0.2-0.2c0.7-0.7,0.8-1.8,0.1-2.5
	c-0.1-0.1-0.1-0.1-0.2-0.2l-5.3-5.4c-1-1-1-2,0.2-3.1l2.1-2.1c1.1-1.1,2.1-1.2,3.1-0.2l5.3,5.3c0.7,0.8,1.8,0.9,2.6,0.2
	c0.8-0.7,0.9-1.8,0.2-2.6C57.1,61,57,60.9,56.9,60.9L56.9,60.9z M67,45l-2.6-2.5c-2.5-2.5-5.5-2.6-8.4,0.3l-2,2
	c-2.8,2.8-2.8,5.8-0.3,8.4l8.2,8.1c0.7,0.8,1.8,0.9,2.6,0.2c0.8-0.7,0.9-1.8,0.2-2.6c-0.1-0.1-0.1-0.2-0.2-0.2l-1.9-1.8
	c0.7-0.2,1.4-0.7,1.9-1.2l2.2-2.2C69.5,50.6,69.5,47.6,67,45z M79.7,32.3l-2.5-2.5c-2.5-2.5-5.6-2.6-8.4,0.3l-2,2
	c-2.8,2.8-2.8,5.9-0.3,8.4l2.5,2.6c2.5,2.5,5.6,2.6,8.4-0.2l2-2C82.3,37.8,82.2,34.8,79.7,32.3z"/>
<path class="st1" d="M56.9,60.9c0.8,0.7,0.9,1.8,0.2,2.6c-0.7,0.8-1.8,0.9-2.6,0.2c-0.1-0.1-0.2-0.1-0.2-0.2l-5.3-5.3
	c-1-1-2-1-3.1,0.2l-2.1,2.1c-1.1,1.1-1.2,2.1-0.2,3.1l5.3,5.4c0.8,0.6,0.9,1.7,0.3,2.5c-0.1,0.1-0.1,0.1-0.2,0.2
	c-0.7,0.7-1.8,0.8-2.6,0.1c-0.1-0.1-0.1-0.1-0.2-0.2l-5.4-5.4c-2.5-2.5-2.6-5.6,0.3-8.4l2-2c2.8-2.8,5.8-2.8,8.4-0.3L56.9,60.9z
	 M79.7,32.3c2.5,2.5,2.6,5.5-0.3,8.4l-2,2c-2.8,2.8-5.9,2.8-8.4,0.2l-2.5-2.5c-2.5-2.5-2.6-5.5,0.2-8.4l2-2c2.8-2.8,5.9-2.8,8.4-0.3
	L79.7,32.3z M77,34.9l-2.4-2.5c-1-1-2-1-3.1,0.2l-2.1,2.1c-1.1,1.1-1.2,2.1-0.2,3.1l2.4,2.5c1,1,2,1,3.1-0.2l2.2-2.1
	C78,36.8,78,35.9,77,34.9z M67,45c2.5,2.5,2.6,5.6-0.3,8.4l-2.2,2.2c-0.5,0.6-1.2,1-1.9,1.2l1.9,1.9c0.8,0.7,0.9,1.8,0.2,2.6
	c-0.7,0.8-1.8,0.9-2.6,0.2c-0.1-0.1-0.2-0.1-0.2-0.2l-8.2-8.1c-2.5-2.5-2.6-5.6,0.3-8.4l2-2c2.8-2.8,5.9-2.8,8.4-0.3L67,45z
	 M64.3,47.6l-2.4-2.5c-1-1-2-1-3.1,0.2l-2.2,2.2c-1.1,1.1-1.2,2.1-0.2,3.1l2.5,2.4c1,1,2,1,3.1-0.2l2.1-2.1
	C65.3,49.6,65.3,48.6,64.3,47.6L64.3,47.6z"/>
<path class="st1" d="M75.1,57.1c-3.4,3.4-3.4,7.2,0,10.6l33.5,33.5c3.4,3.4,7.2,3.4,10.6,0l33.5-33.5c3.4-3.4,3.4-7.2,0-10.6
	l-33.5-33.5c-3.4-3.4-7.2-3.4-10.6,0L75.1,57.1z"/>
<path class="st2" d="M117.8,62.4c0-2.8-1.7-4.1-3.9-4.1s-3.9,1.4-3.9,4.1v21.2c0,2.8,1.7,4.1,3.8,4.1s3.9-1.4,3.9-4.1L117.8,62.4z"
	/>
<path class="st2" d="M93.3,46.1c0-0.5,0.3-1,0.8-1c1-0.3,2-0.4,3-0.4c0.5,0,0.9,0,1.4,0.1c0.5,0.1,0.7,0.3,0.7,0.7
	c0,0.1,0,0.2,0,0.4V46c-0.1,0.5-0.3,0.8-0.7,0.8c-0.3,0-0.7-0.1-1.3-0.1c-0.5,0-1,0.1-1.5,0.2v6.7c0,0.6-0.2,0.8-0.8,0.8h-0.6
	c-0.6,0-0.8-0.2-0.8-0.8L93.3,46.1z"/>
<path class="st2" d="M101.1,46.2c-0.1-0.1-0.1-0.3-0.1-0.4c0-0.3,0.2-0.6,0.5-0.7c1-0.3,2-0.5,3-0.5c2.7,0,4,1.2,4,4v4.7
	c0.1,0.5-0.3,0.9-0.8,1c0,0,0,0-0.1,0c-1.1,0.2-2.2,0.3-3.3,0.3c-2.6,0-4.3-1-4.3-3.1s1.7-3.1,4.1-3.1c0.7,0,1.4,0.1,2.1,0.2v-0.3
	c0-1.2-0.6-1.9-2.1-1.9c-0.6,0-1.3,0.1-1.9,0.3c-0.1,0.1-0.3,0.1-0.5,0.1c-0.3,0-0.5-0.2-0.6-0.6L101.1,46.2z M106.3,50.3
	c-0.5-0.1-1.1-0.2-1.6-0.2c-1.5,0-2.2,0.5-2.2,1.4s0.7,1.4,2.3,1.4c0.5,0,1.1-0.1,1.6-0.2V50.3z"/>
<path class="st2" d="M117.1,41.8c0-0.6,0.2-0.8,0.8-0.8h0.6c0.6,0,0.8,0.2,0.8,0.8v11.5c0,0.5-0.3,0.9-0.8,1
	c-0.9,0.2-1.9,0.4-2.8,0.3c-3.4,0-5.2-1.9-5.2-5s1.9-5,4.9-5c0.5,0,1.1,0.1,1.6,0.2V41.8z M117.1,46.8c-0.4-0.1-0.9-0.2-1.3-0.2
	c-2,0-2.8,1.2-2.8,3s0.9,3,2.8,3c0.5,0,0.9-0.1,1.3-0.2V46.8z"/>
<path class="st2" d="M122.9,40.8c0.8,0,1.4,0.6,1.3,1.4c0,0.8-0.6,1.4-1.4,1.3c-0.7,0-1.3-0.6-1.3-1.4c0-0.7,0.5-1.3,1.3-1.4
	C122.8,40.7,122.9,40.7,122.9,40.8z M121.8,45.7c0-0.6,0.2-0.8,0.8-0.8h0.6c0.6,0,0.8,0.2,0.8,0.8v7.9c0,0.6-0.2,0.8-0.8,0.8h-0.6
	c-0.6,0-0.8-0.2-0.8-0.8V45.7z"/>
<path class="st2" d="M126.4,49.6c0-3.2,1.9-5,4.8-5s4.8,1.8,4.8,5s-1.9,5-4.8,5S126.4,52.9,126.4,49.6z M133.6,49.6
	c0-1.9-0.9-3-2.5-3s-2.4,1.1-2.4,3s0.9,3,2.4,3S133.6,51.6,133.6,49.6z"/>
</svg>
