<?xml version="1.0" encoding="utf-8"?>
<!-- Generator: Adobe Illustrator 25.2.0, SVG Export Plug-In . SVG Version: 6.00 Build 0)  -->
<svg version="1.1" id="sterren" xmlns="http://www.w3.org/2000/svg" xmlns:xlink="http://www.w3.org/1999/xlink" x="0px" y="0px"
	 viewBox="0 0 187.1 124.7" style="enable-background:new 0 0 187.1 124.7;" xml:space="preserve">
<style type="text/css">
	.st0{fill:#E6E6E6;}
	.st1{fill:#24388B;}
	.st2{clip-path:url(#SVGID_2_);}
	.st3{fill:url(#SVGID_3_);}
	.st4{fill:#FFFFFF;}
</style>
<g>
	<path class="st0" d="M112.6,67.8l-32.9,32.9c-3.3,3.4-7.1,3.4-10.4,0L36.4,67.8c-3.4-3.4-3.4-7.1,0-10.4l32.9-32.9
		c3.4-3.4,7.1-3.4,10.4,0l32.9,32.9C115.9,60.7,115.9,64.5,112.6,67.8z"/>
	<path class="st1" d="M76.4,57.2l32.9-32.9c3.4-3.4,7.1-3.4,10.4,0l32.9,32.9c3.4,3.4,3.4,7.1,0,10.4l-32.9,32.9
		c-3.4,3.4-7.1,3.4-10.4,0L76.4,67.6C73.1,64.3,73.1,60.5,76.4,57.2z M58.5,61.1c0.7,0.6,0.9,1.6,0.3,2.4c-0.1,0.1-0.2,0.2-0.3,0.3
		c-0.6,0.7-1.7,0.8-2.4,0.2c-0.1-0.1-0.2-0.2-0.3-0.3l-5.3-5.3c-0.9-1-1.8-1-3,0.2l-2.1,2.1c-1.1,1.1-1.1,2-0.2,3l5.3,5.3
		c0.8,0.5,0.9,1.6,0.4,2.4c-0.1,0.1-0.2,0.2-0.3,0.3c-0.6,0.7-1.6,0.9-2.4,0.3c-0.1-0.1-0.2-0.2-0.3-0.3l-5.3-5.4
		c-2.4-2.5-2.5-5.5,0.3-8.2l2-2c2.8-2.8,5.7-2.7,8.2-0.3L58.5,61.1z M68.4,45.6c2.5,2.5,2.5,5.5-0.3,8.2L66,55.9
		c-0.5,0.6-1.1,1-1.9,1.2l1.9,1.8c0.7,0.7,0.7,1.9,0,2.6s-1.9,0.7-2.6,0l-8-8c-2.5-2.5-2.5-5.5,0.3-8.2l2-2c2.8-2.8,5.7-2.7,8.2-0.3
		L68.4,45.6z M65.8,48.1l-2.4-2.4c-1-1-1.9-1-3,0.1l-2.1,2.1c-1.1,1.1-1.1,2.1-0.1,3l2.4,2.4c1,1,1.9,1,3-0.2l2.2-2.1
		C66.7,50,66.8,49.1,65.8,48.1L65.8,48.1z M80.9,33c2.5,2.5,2.5,5.5-0.3,8.2l-2,2c-2.8,2.8-5.7,2.7-8.2,0.2L68,41
		c-2.5-2.5-2.5-5.5,0.3-8.2l2-2c2.8-2.8,5.8-2.7,8.2-0.3L80.9,33z M78.3,35.6l-2.5-2.4c-1-1-1.9-0.9-3.1,0.2l-2,2.1
		c-1.1,1.1-1.1,2-0.1,3l2.4,2.4c1,1,1.9,1,3-0.1l2.1-2.1C79.2,37.5,79.2,36.6,78.3,35.6L78.3,35.6z"/>
	<g>
		<defs>
			<path id="SVGID_1_" d="M137.1,53.7c-4.9,0-8.8,4-8.8,8.8c0,4.9,4,8.8,8.8,8.8c4.9,0,8.8-4,8.8-8.8c0,0,0,0,0,0
				C145.8,57.7,141.9,53.7,137.1,53.7z M108.9,51.5c-0.7,0-1.2,0.5-1.2,1.2v0c0,0.7,0.5,1.2,1.2,1.2s1.2-0.5,1.2-1.2
				C110.1,52,109.5,51.5,108.9,51.5z M114.6,52.5c-0.8,0-1.5,0.7-1.5,1.5c0,0.8,0.7,1.5,1.5,1.5c0.8,0,1.5-0.7,1.5-1.5
				C116.1,53.2,115.4,52.5,114.6,52.5C114.6,52.5,114.6,52.5,114.6,52.5z M119.9,50.5c-1.2,0-2.1,1-2.1,2.1s1,2.1,2.1,2.1
				c1.2,0,2.1-1,2.1-2.1v0C122,51.5,121.1,50.5,119.9,50.5C119.9,50.5,119.9,50.5,119.9,50.5z M99,52.2c-0.9,0-1.7,0.8-1.7,1.7
				s0.8,1.7,1.7,1.7c0.9,0,1.7-0.8,1.7-1.7C100.7,53,99.9,52.2,99,52.2L99,52.2z M93,50.4c-1.1,0-2,0.9-2,2c0,1.1,0.9,2,2,2
				c1.1,0,2-0.9,2-2c0,0,0,0,0,0C94.9,51.3,94,50.4,93,50.4z M127.6,47c-2.4,0-4.3,1.8-4.3,4.2s1.8,4.3,4.2,4.3
				c2.4,0,4.3-1.8,4.3-4.2C131.7,49,129.9,47.1,127.6,47L127.6,47z M111.8,45.7c-1.4,0-2.5,1.1-2.5,2.5c0,1.4,1.1,2.5,2.5,2.5
				c1.4,0,2.5-1.1,2.5-2.5c0,0,0,0,0,0C114.3,46.8,113.2,45.7,111.8,45.7L111.8,45.7z M106.8,49.9c0,1.8-1.4,3.2-3.2,3.2
				c-1.8,0-3.2-1.4-3.2-3.2c0-1.8,1.4-3.2,3.2-3.2C105.3,46.7,106.8,48.1,106.8,49.9C106.8,49.9,106.8,50,106.8,49.9L106.8,49.9z"/>
		</defs>
		<clipPath id="SVGID_2_">
			<use xlink:href="#SVGID_1_"  style="overflow:visible;"/>
		</clipPath>
		<g class="st2">
			
				<linearGradient id="SVGID_3_" gradientUnits="userSpaceOnUse" x1="84.0743" y1="82.3681" x2="146.5417" y2="55.7755" gradientTransform="matrix(1 0 0 -1 0 126)">
				<stop  offset="0" style="stop-color:#BE8BBD"/>
				<stop  offset="0.24" style="stop-color:#6B5DA5"/>
				<stop  offset="0.5" style="stop-color:#5AC4EB"/>
				<stop  offset="0.7" style="stop-color:#9BBF1C"/>
				<stop  offset="0.8" style="stop-color:#EBA400"/>
				<stop  offset="0.94" style="stop-color:#E53012"/>
			</linearGradient>
			<rect x="89.8" y="45" class="st3" width="56.8" height="26.4"/>
		</g>
	</g>
	<path class="st4" d="M97.9,63.5c0,0.7,0.5,1.1,1.5,1.1c0.5,0,1,0,1.4-0.1c0.3,0,0.6-0.2,0.9-0.3h0.1l-0.1,0.6
		c0,0.2-0.1,0.5-0.3,0.6c-0.2,0.2-0.4,0.4-0.6,0.6c-0.3,0.2-0.6,0.3-0.9,0.4c-0.4,0.1-0.9,0.2-1.3,0.2c-0.5,0-1.1-0.1-1.6-0.3
		c-0.4-0.2-0.8-0.4-1-0.8c-0.3-0.3-0.4-0.7-0.5-1.1c-0.1-0.5-0.1-1,0-1.4c0.1-0.5,0.3-1,0.6-1.5c0.3-0.5,0.6-0.9,1-1.2
		c0.4-0.4,0.8-0.6,1.3-0.8c0.9-0.4,1.9-0.4,2.9-0.1c0.4,0.1,0.7,0.3,0.9,0.6c0.3,0.2,0.4,0.6,0.5,0.9c0.1,0.4,0.1,0.8,0,1.2
		c-0.1,0.3-0.2,0.6-0.4,0.9c-0.2,0.3-0.4,0.5-0.7,0.6c-0.4,0.1-0.7,0.2-1.1,0.3c-0.5,0-1.1,0-1.6,0L97.9,63.5z M114.6,63.5
		c0,0.7,0.5,1.1,1.6,1.1c0.5,0,1,0,1.4-0.1c0.3,0,0.6-0.2,0.9-0.3l0,0l-0.1,0.6c-0.1,0.2-0.1,0.4-0.3,0.6c-0.2,0.2-0.4,0.4-0.6,0.6
		c-0.3,0.2-0.6,0.3-0.9,0.4c-0.4,0.1-0.9,0.2-1.3,0.2c-0.5,0-1.1-0.1-1.6-0.3c-0.4-0.2-0.8-0.4-1-0.8c-0.3-0.3-0.4-0.7-0.5-1.1
		c-0.1-0.5-0.1-1,0-1.4c0.1-0.5,0.3-1,0.6-1.5c0.3-0.5,0.6-0.9,1-1.2c0.4-0.4,0.8-0.6,1.3-0.8c0.5-0.2,1-0.3,1.6-0.3
		c0.4,0,0.9,0.1,1.3,0.2c0.4,0.1,0.7,0.3,0.9,0.6c0.2,0.2,0.4,0.6,0.5,0.9c0.1,0.4,0.1,0.8,0,1.2c0,0.3-0.2,0.6-0.4,0.9
		c-0.2,0.2-0.4,0.4-0.7,0.6c-0.4,0.1-0.8,0.2-1.2,0.3c-0.5,0-1.1,0-1.6,0L114.6,63.5z M90.1,63.3c-0.2,0.9-0.7,1.7-1.4,2.2
		c-0.4,0.3-0.8,0.5-1.3,0.6c-0.5,0.2-1.1,0.2-1.7,0.2c-0.7,0.1-1.4-0.1-2-0.5c-0.5-0.4-0.7-1-0.5-1.5l0.2-0.9h0.1
		c0.1,0.1,0.3,0.3,0.4,0.4c0.2,0.1,0.4,0.2,0.6,0.3l0.7,0.2c0.3,0,0.5,0,0.8,0c0.4,0,0.8,0,1.2-0.2c0.2-0.1,0.4-0.4,0.4-0.7
		c0-0.1,0-0.2,0-0.4c-0.1-0.1-0.2-0.2-0.3-0.3c-0.2-0.1-0.4-0.1-0.6-0.2L86,62.5c-0.4-0.1-0.8-0.2-1.2-0.4c-0.3-0.1-0.5-0.3-0.7-0.5
		c-0.2-0.2-0.3-0.4-0.3-0.7c-0.1-0.3-0.1-0.6,0-0.9c0.1-0.4,0.2-0.8,0.5-1.1c0.3-0.4,0.6-0.7,0.9-1c0.4-0.3,0.8-0.5,1.3-0.7
		c0.5-0.2,1.1-0.3,1.6-0.3c0.5,0,0.9,0,1.4,0.2c0.3,0.1,0.6,0.2,0.8,0.4c0.2,0.2,0.3,0.4,0.4,0.6c0,0.2,0,0.5,0,0.7l-0.2,0.9l0,0
		c-0.1-0.1-0.3-0.3-0.5-0.4c-0.2-0.1-0.4-0.2-0.6-0.3c-0.2-0.1-0.4-0.1-0.7-0.2h-0.7c-0.5,0-0.9,0-1.3,0.2c-0.2,0.1-0.4,0.3-0.5,0.6
		c0,0.1,0,0.2,0,0.3c0,0.1,0.1,0.2,0.2,0.2c0.2,0.1,0.3,0.2,0.5,0.2l0.9,0.2c0.7,0.1,1.4,0.4,1.9,0.9C90.2,62.2,90.3,62.8,90.1,63.3
		L90.1,63.3z M91.6,59.3c0.1-0.3,0.2-0.6,0.4-0.9c0.2-0.3,0.5-0.5,0.8-0.7c0.2-0.1,0.4-0.2,0.6-0.3c0.2-0.1,0.5-0.2,0.7-0.2h0.4
		L94.2,59h2L96,59.9c0,0.2-0.1,0.3-0.2,0.4c-0.1,0.1-0.2,0.2-0.4,0.3c-0.1,0.1-0.3,0.2-0.4,0.2c-0.1,0.1-0.3,0.1-0.4,0.1h-0.9
		l-0.5,2.6c0,0.2,0,0.4,0.1,0.6c0.1,0.1,0.3,0.2,0.5,0.2c0.2,0,0.5,0,0.7,0l0.4-0.1h0.1l-0.2,1c-0.1,0.3-0.3,0.6-0.6,0.8
		c-0.4,0.3-1,0.4-1.5,0.3c-0.3,0-0.6,0-0.9-0.1c-0.3-0.1-0.5-0.2-0.7-0.4c-0.2-0.2-0.4-0.5-0.4-0.8c-0.1-0.4-0.1-0.8,0-1.2
		L91.6,59.3z M142.1,65.1c0,0.2-0.1,0.4-0.3,0.6c-0.1,0.1-0.3,0.3-0.4,0.3c-0.2,0.1-0.4,0.1-0.5,0.2c-0.2,0-0.4,0-0.6,0
		c-0.3,0-0.6,0-0.9-0.2c-0.3-0.1-0.5-0.2-0.7-0.4c-0.2-0.2-0.3-0.5-0.4-0.8c-0.1-0.4-0.1-0.7,0-1.1l1.4-7.2h0.9
		c0.4,0,0.8,0.1,1.1,0.4c0.2,0.4,0.3,0.9,0.1,1.3l-1,5.2c0,0.3,0,0.5,0.1,0.6c0.2,0.1,0.5,0.2,0.8,0.2h0.5L142.1,65.1z M109.7,66.2
		h-0.7c-0.4,0-0.9-0.1-1.2-0.4c-0.3-0.4-0.4-0.8-0.2-1.3l0.6-3.1c0.1-0.4,0.2-0.7,0.4-1c0.2-0.3,0.4-0.6,0.7-0.8
		c0.3-0.2,0.6-0.4,0.9-0.6c0.4-0.1,0.7-0.2,1.1-0.2c0.5,0,0.9,0.1,1.3,0.3c0.2,0.2,0.3,0.5,0.3,0.8l-0.2,0.9l0,0
		c-0.1-0.1-0.3-0.1-0.4-0.1c-0.1,0-0.3,0-0.4,0c-0.7,0-1.2,0.5-1.3,1.1c0,0,0,0,0,0L109.7,66.2z M105.1,66.2h-0.7
		c-0.4,0-0.9-0.1-1.2-0.4c-0.3-0.4-0.4-0.8-0.2-1.3l0.6-3.1c0.1-0.4,0.2-0.7,0.4-1c0.2-0.3,0.4-0.6,0.7-0.8c0.3-0.2,0.6-0.4,0.9-0.6
		c0.4-0.1,0.7-0.2,1.1-0.2c0.5-0.1,0.9,0,1.3,0.3c0.2,0.2,0.3,0.5,0.3,0.8l-0.3,0.9l0,0c-0.1-0.1-0.3-0.1-0.4-0.1
		c-0.1,0-0.3,0-0.4,0c-0.3,0-0.6,0.1-0.8,0.3c-0.3,0.2-0.4,0.6-0.5,0.9L105.1,66.2z M121.9,66.2H121c-0.4,0-0.8-0.1-1.2-0.3
		c-0.2-0.3-0.3-0.7-0.2-1.1l0.5-2.5c0.1-0.5,0.3-1,0.5-1.4c0.2-0.4,0.6-0.8,0.9-1.1c0.4-0.3,0.8-0.5,1.3-0.7c0.5-0.2,1-0.2,1.6-0.2
		c0.5,0,1.1,0.1,1.6,0.2c0.4,0.1,0.7,0.4,1,0.7c0.2,0.3,0.4,0.7,0.4,1.1c0.1,0.5,0.1,1,0,1.4l-0.7,3.9h-1c-0.4,0.1-0.8-0.1-1.1-0.3
		c-0.1-0.4-0.1-0.8,0-1.1l0.5-2.5c0.1-0.3,0.1-0.7,0-1.1c-0.2-0.3-0.5-0.4-0.8-0.3c-0.3,0-0.7,0.1-0.9,0.4c-0.2,0.3-0.4,0.6-0.5,1
		L121.9,66.2z M132.4,66.2h-0.8c-0.4,0-0.8-0.1-1.2-0.3c-0.3-0.3-0.3-0.7-0.2-1.1l0.5-2.5c0.1-0.5,0.3-1,0.5-1.4
		c0.2-0.4,0.5-0.8,0.9-1.1c0.4-0.3,0.8-0.5,1.3-0.7c0.5-0.2,1-0.2,1.6-0.2c0.5,0,1.1,0.1,1.6,0.2c0.4,0.1,0.7,0.4,1,0.7
		c0.2,0.3,0.4,0.7,0.4,1.1c0.1,0.5,0,1-0.1,1.4l-0.7,3.9h-1c-0.5,0-0.9-0.1-1.1-0.3c-0.2-0.4-0.2-0.8,0-1.1l0.5-2.5
		c0.1-0.3,0.1-0.7,0-1.1c-0.2-0.3-0.5-0.4-0.8-0.3c-0.3,0-0.7,0.1-0.9,0.4c-0.3,0.3-0.4,0.6-0.5,1L132.4,66.2z M100.6,61.4
		c0-0.2,0-0.4-0.2-0.5c-0.2-0.2-0.5-0.3-0.7-0.2c-0.4,0-0.7,0.1-1,0.4c-0.3,0.2-0.4,0.5-0.5,0.9h1h0.7c0.1,0,0.3,0,0.4-0.1
		c0.1,0,0.2-0.1,0.2-0.2C100.6,61.6,100.6,61.5,100.6,61.4z M117.3,61.4c0-0.2,0-0.4-0.2-0.5c-0.2-0.2-0.5-0.3-0.7-0.2
		c-0.4,0-0.7,0.1-1,0.4c-0.2,0.2-0.4,0.5-0.5,0.9h1h0.7l0.4-0.1c0.1,0,0.2-0.1,0.2-0.2C117.3,61.6,117.3,61.5,117.3,61.4z"/>
</g>
</svg>
