<svg id="NPO_RD5_Logo_RGB" xmlns="http://www.w3.org/2000/svg" viewBox="0 0 187.09 124.72"><defs><style>.cls-1{fill:#e6e6e6;}.cls-2{fill:#fdba0b;}.cls-3{fill:none;}.cls-4{fill:#fff;}</style></defs><path class="cls-1" d="M64.29,47.62c1,1,1,2-.15,3.1L62,52.86C60.86,54,59.91,54,58.9,53l-2.45-2.44c-1-1-1-2,.15-3.11l2.14-2.13c1.14-1.15,2.09-1.17,3.11-.16Zm10.3-15.19c-1-1-2-1-3.11.16l-2.14,2.14c-1.14,1.14-1.17,2.09-.15,3.1l2.44,2.45c1,1,2,1,3.11-.15L76.88,38C78,36.85,78,35.89,77,34.88ZM112,67.66,78.49,101.15c-3.37,3.38-7.24,3.38-10.61,0L34.4,67.67C31,64.29,31,60.43,34.4,57.06L67.88,23.57c3.38-3.37,7.24-3.37,10.61,0L112,57.06C115.35,60.43,115.35,64.29,112,67.66Zm-55.11-6.8-5.4-5.4c-2.53-2.52-5.55-2.57-8.38.26l-2,2c-2.83,2.83-2.79,5.86-.26,8.39l5.39,5.4a1.81,1.81,0,0,0,2.73.08,1.78,1.78,0,0,0-.1-2.71l-5.35-5.36c-1-1-1-2,.16-3.1l2.14-2.14c1.13-1.14,2.09-1.17,3.1-.15l5.35,5.35a1.87,1.87,0,1,0,2.64-2.63ZM67,45,64.43,42.5c-2.52-2.53-5.55-2.57-8.38.26l-2,2c-2.84,2.82-2.79,5.85-.27,8.38l8.15,8.14a1.87,1.87,0,1,0,2.64-2.63L62.68,56.8a4.23,4.23,0,0,0,1.88-1.23l2.15-2.16C69.54,50.59,69.49,47.56,67,45ZM79.71,32.3l-2.54-2.54c-2.52-2.52-5.56-2.57-8.38.26l-2,2c-2.83,2.83-2.78,5.86-.26,8.38L69.05,43c2.52,2.53,5.55,2.58,8.38-.25l2-2C82.27,37.85,82.23,34.82,79.71,32.3Z"/><path class="cls-2" d="M56.87,60.86a1.87,1.87,0,1,1-2.64,2.63l-5.35-5.35c-1-1-2-1-3.1.15l-2.14,2.14c-1.14,1.14-1.17,2.09-.16,3.1l5.35,5.36a1.78,1.78,0,0,1,.1,2.71,1.81,1.81,0,0,1-2.73-.08l-5.39-5.4c-2.53-2.53-2.57-5.56.26-8.39l2-2c2.83-2.83,5.85-2.78,8.38-.26ZM79.71,32.3c2.52,2.52,2.56,5.55-.27,8.38l-2,2c-2.83,2.83-5.86,2.78-8.38.25l-2.54-2.53C64,37.9,63.94,34.87,66.77,32l2-2c2.82-2.83,5.86-2.78,8.38-.26ZM77,34.88l-2.44-2.45c-1-1-2-1-3.11.16l-2.14,2.14c-1.14,1.14-1.17,2.09-.15,3.1l2.44,2.45c1,1,2,1,3.11-.15L76.88,38C78,36.85,78,35.89,77,34.88ZM67,45c2.52,2.53,2.57,5.56-.26,8.38l-2.15,2.16a4.23,4.23,0,0,1-1.88,1.23l1.88,1.87a1.87,1.87,0,1,1-2.64,2.63l-8.15-8.14c-2.52-2.53-2.57-5.56.27-8.38l2-2c2.83-2.83,5.86-2.79,8.38-.26Zm-2.68,2.59-2.44-2.45c-1-1-2-1-3.11.16L56.6,47.46c-1.14,1.14-1.16,2.1-.15,3.11L58.9,53c1,1,2,1,3.1-.15l2.14-2.14C65.28,49.59,65.31,48.63,64.29,47.62Z"/><path class="cls-2" d="M75.11,57.06c-3.37,3.37-3.37,7.23,0,10.6l33.48,33.49c3.38,3.38,7.24,3.38,10.62,0l33.48-33.49c3.37-3.37,3.37-7.23,0-10.6L119.21,23.57c-3.38-3.37-7.24-3.37-10.61,0Z"/><rect class="cls-3" width="187.09" height="124.72"/><path class="cls-4" d="M119.21,75.86c.52,0,.82.28.82.88v2.59c0,.6-.3.88-.81.88h-15.1a3.32,3.32,0,1,0,0,6.62h19.47c2.43,0,3.67-1.52,3.67-3.4V72.64c0-1.88-1.24-3.4-3.67-3.4h-15c-.52,0-.83-.27-.83-.88V65.78c0-.61.31-.88.83-.88h15.09a3.32,3.32,0,1,0,0-6.62H104.21c-2.43,0-3.67,1.52-3.67,3.4V72.46c0,1.88,1.24,3.4,3.67,3.4Z"/><path class="cls-3" d="M75.1,57.06c-3.36,3.37-3.36,7.23,0,10.6l33.49,33.49c3.37,3.37,7.24,3.37,10.61,0l33.49-33.48c3.37-3.37,3.37-7.24,0-10.61L119.2,23.57c-3.37-3.37-7.24-3.37-10.61,0Z"/><path class="cls-4" d="M93.33,46.09a1,1,0,0,1,.8-1.05,11.47,11.47,0,0,1,3-.42,10.7,10.7,0,0,1,1.37.08c.47.06.72.32.72.72a2.33,2.33,0,0,1,0,.36l0,.19c-.11.53-.26.76-.72.76-.27,0-.74-.07-1.27-.07a5.61,5.61,0,0,0-1.54.19v6.74c0,.59-.25.84-.84.84h-.6c-.59,0-.84-.25-.84-.84Z"/><path class="cls-4" d="M101.08,46.16a1.05,1.05,0,0,1-.08-.4.73.73,0,0,1,.54-.66,8.68,8.68,0,0,1,3-.48c2.66,0,4,1.16,4,4v4.73a.88.88,0,0,1-.82,1,18.51,18.51,0,0,1-3.34.33c-2.64,0-4.26-1-4.26-3.12s1.65-3.1,4.1-3.1a8.59,8.59,0,0,1,2.06.25v-.28c0-1.18-.59-1.87-2.13-1.87a6.07,6.07,0,0,0-1.9.35,1.69,1.69,0,0,1-.46.09c-.3,0-.47-.17-.64-.59Zm5.21,4.13a5.68,5.68,0,0,0-1.64-.21c-1.5,0-2.22.45-2.22,1.44s.7,1.41,2.26,1.41a6.11,6.11,0,0,0,1.6-.19Z"/><path class="cls-4" d="M117.06,41.77c0-.58.25-.83.84-.83h.6c.59,0,.84.25.84.83V53.25a.94.94,0,0,1-.78,1,11.12,11.12,0,0,1-2.81.35c-3.42,0-5.21-1.9-5.21-5s1.87-5,4.9-5a5.89,5.89,0,0,1,1.62.21Zm0,5a4.83,4.83,0,0,0-1.35-.19c-2,0-2.85,1.22-2.85,3s.86,3,2.85,3a4.83,4.83,0,0,0,1.35-.19Z"/><path class="cls-4" d="M122.93,40.75a1.37,1.37,0,1,1-1.4,1.37A1.32,1.32,0,0,1,122.93,40.75Zm-1.14,4.9c0-.59.25-.84.84-.84h.61c.58,0,.83.25.83.84v7.94c0,.59-.25.84-.83.84h-.61c-.59,0-.84-.25-.84-.84Z"/><path class="cls-4" d="M126.43,49.62c0-3.25,1.88-5,4.76-5s4.77,1.75,4.77,5-1.88,5-4.77,5S126.43,52.89,126.43,49.62Zm7.22,0c0-1.94-.88-3-2.46-3s-2.45,1.1-2.45,3,.88,3,2.45,3S133.65,51.58,133.65,49.62Z"/></svg>