<?xml version="1.0" encoding="utf-8"?>
<!-- Generator: Adobe Illustrator 25.2.0, SVG Export Plug-In . SVG Version: 6.00 Build 0)  -->
<svg version="1.1"
	 id="svg1668" xmlns:cc="http://creativecommons.org/ns#" xmlns:dc="http://purl.org/dc/elements/1.1/" xmlns:inkscape="http://www.inkscape.org/namespaces/inkscape" xmlns:rdf="http://www.w3.org/1999/02/22-rdf-syntax-ns#" xmlns:sodipodi="http://sodipodi.sourceforge.net/DTD/sodipodi-0.dtd" xmlns:svg="http://www.w3.org/2000/svg"
	 xmlns="http://www.w3.org/2000/svg" xmlns:xlink="http://www.w3.org/1999/xlink" x="0px" y="0px" viewBox="0 0 187.1 124.7"
	 style="enable-background:new 0 0 187.1 124.7;" xml:space="preserve">
<style type="text/css">
	.st0{fill:#E7E7E7;}
	.st1{fill:#0C1015;}
	.st2{fill:url(#ellipse1683_1_);}
	.st3{fill:url(#path1685_1_);}
	.st4{fill:url(#path1687_1_);}
	.st5{fill:url(#path23902_1_);}
	.st6{fill:url(#path23841_1_);}
	.st7{fill:#FFFFFF;}
</style>
<sodipodi:namedview  bordercolor="#666666" borderopacity="1.0" fit-margin-bottom="0" fit-margin-left="0" fit-margin-right="0" fit-margin-top="0" id="base" inkscape:current-layer="g24076" inkscape:cx="566.84267" inkscape:cy="379.19855" inkscape:document-units="mm" inkscape:guide-bbox="true" inkscape:pageopacity="0.0" inkscape:pageshadow="2" inkscape:window-height="705" inkscape:window-maximized="1" inkscape:window-width="1366" inkscape:window-x="-8" inkscape:window-y="-8" inkscape:zoom="0.7" pagecolor="#ffffff" showgrid="false" showguides="false">
	<sodipodi:guide  id="guide23986" inkscape:locked="false" orientation="0,1" position="229.83015,99.542382"></sodipodi:guide>
	<sodipodi:guide  id="guide23988" inkscape:locked="false" orientation="0,1" position="228.74347,80.927052"></sodipodi:guide>
</sodipodi:namedview>
<g id="layer1" transform="translate(67.111402,-73.791102)" inkscape:groupmode="layer" inkscape:label="Layer 1">
	<g id="g24076" transform="matrix(0.98890122,0,0,0.98890122,-0.74485483,2.7933748)">
		<path id="rect24010" inkscape:connector-curvature="0" class="st0" d="M12.2,95.2l34.6,34.6c2.8,2.8,2.8,7.4,0,10.2l-34.6,34.6
			c-2.8,2.8-7.4,2.8-10.2,0l-34.6-34.6c-2.8-2.8-2.8-7.4,0-10.2L2,95.2C4.9,92.4,9.4,92.4,12.2,95.2z"/>
		<path id="path24058" inkscape:connector-curvature="0" class="st1" d="M-25.7,130.6c-2.3,2.3-2.3,6,0,8.2l5.6,5.6
			c0.7,0.8,2,0.8,2.7,0c0.8-0.7,0.8-2,0-2.7c0,0,0,0,0,0l-5.6-5.6c-0.8-0.8-0.8-2,0-2.8l2.6-2.6c0.8-0.8,2-0.8,2.8,0l5.6,5.6
			c0.7,0.8,1.9,0.8,2.7,0.1c0.8-0.7,0.8-1.9,0.1-2.7c0,0,0,0-0.1-0.1l-5.6-5.6c-2.3-2.3-6-2.3-8.2,0L-25.7,130.6z"/>
		<path id="path24056" inkscape:connector-curvature="0" class="st1" d="M-5.9,113.2c-1.5,0-3,0.6-4.1,1.7l-2.6,2.6
			c-2.3,2.3-2.3,6,0,8.2l0.8,0.8l1.8,1.8l5.7,5.7c0.7,0.8,2,0.8,2.7,0c0.8-0.7,0.8-2,0-2.7c0,0,0,0,0,0l-1.8-1.8
			c0.6-0.3,1.2-0.7,1.7-1.2l2.6-2.6c2.3-2.3,2.3-6,0-8.2l-2.6-2.6C-2.9,113.7-4.4,113.2-5.9,113.2z M-5.9,117c0.5,0,1,0.2,1.4,0.6
			l2.6,2.6c0.8,0.8,0.8,2,0,2.8l-2.6,2.6c-0.8,0.8-2,0.8-2.8,0l-1.8-1.8l-0.8-0.8c-0.8-0.8-0.8-2,0-2.8l2.6-2.6
			C-6.9,117.2-6.4,117-5.9,117L-5.9,117z"/>
		<path id="path24054" inkscape:connector-curvature="0" class="st1" d="M6.9,100.4c-1.5,0-3,0.6-4.1,1.7l-2.6,2.6
			c-2.3,2.3-2.3,6,0,8.2l2.6,2.6c2.3,2.3,6,2.3,8.2,0l2.6-2.6c2.3-2.3,2.3-6,0-8.2l-2.6-2.6C9.9,100.9,8.4,100.4,6.9,100.4z
			 M6.9,104.2c0.5,0,1,0.2,1.4,0.6l2.6,2.6c0.8,0.8,0.8,2,0,2.8l-2.6,2.6c-0.8,0.8-2,0.8-2.8,0l-2.6-2.6c-0.8-0.8-0.8-2,0-2.8
			l2.6-2.6C5.9,104.4,6.4,104.2,6.9,104.2L6.9,104.2z"/>
		<path id="rect23960" inkscape:connector-curvature="0" class="st1" d="M52.9,95.2l34.6,34.6c2.8,2.8,2.8,7.4,0,10.2l-34.6,34.6
			c-2.8,2.8-7.4,2.8-10.2,0L8.2,139.9c-2.8-2.8-2.8-7.4,0-10.2l34.6-34.6C45.6,92.4,50.1,92.4,52.9,95.2z"/>
		
			<linearGradient id="ellipse1683_1_" gradientUnits="userSpaceOnUse" x1="-660.0737" y1="424.5936" x2="-651.4633" y2="408.8069" gradientTransform="matrix(2.8032 0 0 -2.8032 1888.8929 1297.3574)">
			<stop  offset="0" style="stop-color:#F8FD29"/>
			<stop  offset="1" style="stop-color:#34D425"/>
		</linearGradient>
		<path id="ellipse1683" inkscape:connector-curvature="0" sodipodi:nodetypes="ccscccccscccc" class="st2" d="M63.9,112.8
			l-17.1,22.6l4.8,3.4c2,1.5,2.8,4.6,1.6,7.1c-1.2,2.5-3.9,3.9-6.6,3.3c-2.7-0.6-4.6-3-4.6-5.8h-4.3c0,4.8,3.3,9,8,10
			c4.7,1,9.5-1.3,11.5-5.7c2-4.3,0.9-9.7-3.1-12.5l-1.1-0.8L63.9,120V112.8z"/>
		
			<linearGradient id="path1685_1_" gradientUnits="userSpaceOnUse" x1="-658.7222" y1="425.3307" x2="-650.1118" y2="409.544" gradientTransform="matrix(2.8032 0 0 -2.8032 1888.8929 1297.3574)">
			<stop  offset="0" style="stop-color:#F8FD29"/>
			<stop  offset="1" style="stop-color:#34D425"/>
		</linearGradient>
		<path id="path1685" inkscape:connector-curvature="0" sodipodi:nodetypes="ccccccc" class="st3" d="M31.6,111v4.3h21.7l-12.2,16.1
			l3.6,2.5L62,111H31.6z"/>
		
			<linearGradient id="path1687_1_" gradientUnits="userSpaceOnUse" x1="-661.6688" y1="423.7236" x2="-653.0583" y2="407.9369" gradientTransform="matrix(2.8032 0 0 -2.8032 1888.8929 1297.3574)">
			<stop  offset="0" style="stop-color:#F8FD29"/>
			<stop  offset="1" style="stop-color:#34D425"/>
		</linearGradient>
		<path id="path1687" inkscape:connector-curvature="0" sodipodi:nodetypes="ccccc" class="st4" d="M31.6,117.9v4.3h13.3l3.3-4.3
			L31.6,117.9z"/>
		
			<linearGradient id="path23902_1_" gradientUnits="userSpaceOnUse" x1="-659.2468" y1="425.0446" x2="-650.6364" y2="409.2579" gradientTransform="matrix(2.8032 0 0 -2.8032 1888.8929 1297.3574)">
			<stop  offset="0" style="stop-color:#F8FD29"/>
			<stop  offset="1" style="stop-color:#34D425"/>
		</linearGradient>
		<path id="path23902" inkscape:connector-curvature="0" class="st5" d="M59.1,130.5l-2.6,3.5c4.1,3.7,5.4,9.5,3.1,14.6
			c-0.2,0.5-0.5,1-0.7,1.4l3.4,2.8c0.5-0.8,1-1.6,1.3-2.5C66.7,143.4,64.8,135.4,59.1,130.5L59.1,130.5z"/>
		
			<linearGradient id="path23841_1_" gradientUnits="userSpaceOnUse" x1="-664.7534" y1="422.0412" x2="-656.1429" y2="406.2545" gradientTransform="matrix(2.8032 0 0 -2.8032 1888.8929 1297.3574)">
			<stop  offset="0" style="stop-color:#F8FD29"/>
			<stop  offset="1" style="stop-color:#34D425"/>
		</linearGradient>
		<path id="path23841" inkscape:connector-curvature="0" class="st6" d="M30.6,143.4c0,8.1,5.7,15.1,13.7,16.8
			c6.1,1.3,12.4-0.9,16.4-5.4l-3.3-2.8c-3,3.3-7.6,4.8-12.2,3.9c-6-1.3-10.2-6.5-10.2-12.5H30.6z"/>
		<path id="path24048" inkscape:connector-curvature="0" class="st7" d="M67.3,130.5v8.6h2.2V136h3.8v-2h-3.8v-1.4h3.8v-2H67.3z"/>
		<path id="rect23990" inkscape:connector-curvature="0" class="st7" d="M74.7,130.5v8.6h2.2V134l2.2,3l2.2-3v5.2h2.2v-8.6h-2
			l-2.3,3.1l-2.3-3.1H74.7z"/>
	</g>
</g>
</svg>
