<?xml version="1.0" encoding="utf-8"?>
<!-- Generator: Adobe Illustrator 25.2.0, SVG Export Plug-In . SVG Version: 6.00 Build 0)  -->
<svg version="1.1" id="funx" xmlns="http://www.w3.org/2000/svg" xmlns:xlink="http://www.w3.org/1999/xlink" x="0px" y="0px"
	 viewBox="0 0 187.1 124.7" style="enable-background:new 0 0 187.1 124.7;" xml:space="preserve">
<style type="text/css">
	.st0{fill:#DCDDDE;}
	.st1{fill:#6E2B82;}
	.st2{fill:#FFFFFF;}
	.st3{fill:#7CCBB7;}
</style>
<path id="path13281_1_" class="st0" d="M32,46.7l-1.2-1.2c-1.2-1.2-2.7-1.2-4.1,0.1l-1,1c-1.4,1.4-1.4,2.8-0.1,4.1l1.2,1.2
	c1.2,1.2,2.7,1.3,4.1-0.1l1-1C33.2,49.4,33.2,47.9,32,46.7 M25.8,52.9l-1.2-1.2c-1.2-1.2-2.7-1.3-4.1,0.1l-1,1
	c-1.4,1.4-1.4,2.8-0.1,4.1l4,4c0.5,0.5,1,0.4,1.3,0c0.4-0.4,0.4-0.9,0-1.3l-0.9-0.9c0.2-0.1,0.6-0.2,0.9-0.6l1-1
	C27,55.6,27,54.1,25.8,52.9 M20.8,60.6L18.2,58c-1.2-1.2-2.7-1.3-4.1,0.1l-1,1c-1.4,1.4-1.4,2.9-0.1,4.1l2.6,2.6
	c0.5,0.5,1,0.4,1.3,0c0.4-0.4,0.4-0.9,0-1.3l-2.6-2.6c-0.5-0.5-0.5-1,0.1-1.5l1-1c0.6-0.6,1-0.6,1.5-0.1l2.6,2.6
	c0.5,0.5,1,0.4,1.3,0C21.2,61.6,21.3,61.1,20.8,60.6 M47.6,63.9L31.4,80.2c-1.6,1.6-3.5,1.6-5.2,0L9.9,63.9c-1.6-1.6-1.6-3.5,0-5.2
	l16.3-16.3c1.6-1.6,3.5-1.6,5.2,0l16.3,16.3C49.3,60.4,49.3,62.3,47.6,63.9 M29.5,46.8c-0.5-0.5-1-0.5-1.5,0.1l-1,1
	c-0.6,0.6-0.6,1-0.1,1.5l1.2,1.2c0.5,0.5,1,0.5,1.5-0.1l1-1c0.6-0.6,0.6-1,0.1-1.5L29.5,46.8z M24.5,54.2c0.5,0.5,0.5,1-0.1,1.5
	l-1,1c-0.6,0.6-1,0.6-1.5,0.1l-1.2-1.2c-0.5-0.5-0.5-1,0.1-1.5l1-1c0.6-0.6,1-0.6,1.5-0.1L24.5,54.2z"/>
<path class="st1" d="M24.5,54.2L23.3,53c-0.5-0.5-1-0.5-1.5,0.1l-1,1c-0.6,0.6-0.6,1-0.1,1.5l1.2,1.2c0.5,0.5,1,0.5,1.5-0.1l1-1
	C24.9,55.1,25,54.7,24.5,54.2 M25.8,52.9c1.2,1.2,1.2,2.7-0.1,4.1l-1,1c-0.4,0.4-0.7,0.5-0.9,0.6l0.9,0.9c0.5,0.5,0.4,1,0,1.3
	c-0.4,0.4-0.9,0.4-1.3,0l-4-4c-1.2-1.2-1.2-2.7,0.1-4.1l1-1c1.4-1.4,2.8-1.4,4.1-0.1L25.8,52.9z M30.7,48l-1.2-1.2
	c-0.5-0.5-1-0.5-1.5,0.1l-1,1c-0.6,0.6-0.6,1-0.1,1.5l1.2,1.2c0.5,0.5,1,0.5,1.5-0.1l1-1C31.1,48.9,31.1,48.5,30.7,48 M32,46.7
	c1.2,1.2,1.2,2.7-0.1,4.1l-1,1c-1.4,1.4-2.8,1.4-4.1,0.1l-1.2-1.2c-1.2-1.2-1.2-2.7,0.1-4.1l1-1c1.4-1.4,2.9-1.4,4.1-0.1L32,46.7z
	 M20.8,60.6c0.5,0.5,0.4,1,0,1.3c-0.4,0.4-0.9,0.4-1.3,0L17,59.3c-0.5-0.5-1-0.5-1.5,0.1l-1,1c-0.6,0.6-0.6,1-0.1,1.5l2.6,2.6
	c0.5,0.5,0.4,1,0,1.3c-0.4,0.4-0.9,0.4-1.3,0L13,63.2c-1.2-1.2-1.3-2.7,0.1-4.1l1-1c1.4-1.4,2.8-1.4,4.1-0.1
	C18.2,58,20.8,60.6,20.8,60.6z M128.3,74.1l9.5-13.3l-9.5-13.2V74.1z M122.7,81.6h-4.4l-12.7-13.3v13.3H93.3V77
	c-2.8,3.6-7.6,5.4-14.1,5.4c-10.9,0-16.8-5.1-16.8-14.5v-5.6h-8.5v19.2H36.6V41.2l66.7,0L116,54.4V41.2l29.2,0l3.5,4.7l3.5-4.7h6.4
	l4.2-5.8h15.7L159.1,62l14.2,19.5h-21.5l-3.5-4.8l-3.5,4.8h-6.3l-5.6,7.6l-15.8,0L122.7,81.6L122.7,81.6z"/>
<path class="st2" d="M93.6,43.7L93.6,43.7l0,24.3c0,10-7.7,12.1-14.4,12.1c-6.7,0-14.5-2.1-14.5-12.1V46.1h-23v33H39V43.6l28.5,0
	v24.3c0,8.3,6.6,9.3,11.7,9.3c5.2,0,11.7-1,11.7-9.3V46.1h-2.3v22.3c0,4-2.4,6.6-7.4,6.6c3.3-0.9,4.7-3.6,4.7-6.6V43.7l0-0.1h0H93.6
	z M43.9,79.2h2.7V55.3h16.2v-2.5H46.6v-2.1h16.2v-2.5H43.9V79.2z M48.7,79.2h2.7V59.9h9.2v-2.5l-11.9,0V79.2z M77,75
	c-3.3-0.9-4.7-3.6-4.7-6.6V46.1h2.1v22.2c0,2.5,1.2,5,4.7,5c3.4,0,4.7-2.5,4.7-5V43.6h-2.7v24.6c0,1.5-0.5,2.3-2,2.3
	c-1.5,0-2-0.8-2-2.3l0-24.6l-7.6,0v24.7C69.6,72.4,72,75,77,75 M126,75.3L95.6,43.6v35.6h2.7V50.4l2.1,2.2v26.6h2.7V55.4L126,79.2
	V75.3z M125.9,68.3V43.7h-2.7v21.8l-2.1-2.2V43.7h-2.7v16.8l-16-16.8l-3.8,0l27.4,28.6V68.3z M105,60.3v3.9l14.3,15h3.8L105,60.3z"
	/>
<path class="st3" d="M151.3,63.7l11.3,15.4H159l-7.7-10.5l-1.2,1.7l6.5,8.9H153l-4.7-6.4l-4.7,6.4h-3.6L151.3,63.7z M173.7,37.9
	h-3.5c0,0-17.6,24.2-17.6,24.2L165,79.2h3.6L156.1,62L173.7,37.9z M156.8,43.6h-3.6l-4.7,6.4l-4.7-6.4h-3.6l6.5,8.9l-1.2,1.7
	l-7.7-10.5h-3.6l11.3,15.4L156.8,43.6z M131.9,43.6h-3.6l12.5,17.1l-18.9,26h3.5c0,0,19-26.1,19-26.1L131.9,43.6z M163.9,37.9
	c0,0-35.7,49-35.7,49l3.6,0l35.7-48.9H163.9z"/>
</svg>
