<svg id="NPO_TV3_RGB" xmlns="http://www.w3.org/2000/svg" viewBox="0 0 187.09 124.72"><defs><style>.cls-1{fill:#e6e6e6;}.cls-2{fill:#00c725;}.cls-3{fill:none;}.cls-4{fill:#fff;}</style></defs><path class="cls-1" d="M64.29,47.62c1,1,1,2-.15,3.1L62,52.86C60.86,54,59.91,54,58.9,53l-2.45-2.44c-1-1-1-2,.15-3.11l2.14-2.13c1.14-1.15,2.09-1.17,3.11-.16Zm10.3-15.19c-1-1-2-1-3.11.16l-2.14,2.14c-1.14,1.14-1.17,2.09-.15,3.1l2.44,2.45c1,1,2,1,3.11-.15L76.88,38C78,36.85,78,35.89,77,34.88ZM112,67.66,78.49,101.15c-3.37,3.38-7.24,3.38-10.61,0L34.4,67.67C31,64.29,31,60.43,34.4,57.06L67.88,23.57c3.38-3.37,7.24-3.37,10.61,0L112,57.06C115.35,60.43,115.35,64.29,112,67.66Zm-55.11-6.8-5.4-5.4c-2.53-2.52-5.55-2.57-8.38.26l-2,2c-2.83,2.83-2.79,5.86-.26,8.39l5.39,5.4a1.81,1.81,0,0,0,2.73.08,1.78,1.78,0,0,0-.1-2.71l-5.35-5.36c-1-1-1-2,.16-3.1l2.14-2.14c1.13-1.14,2.09-1.17,3.1-.15l5.35,5.35a1.87,1.87,0,1,0,2.64-2.63ZM67,45,64.43,42.5c-2.52-2.53-5.55-2.57-8.38.26l-2,2c-2.84,2.82-2.79,5.85-.27,8.38l8.15,8.14a1.87,1.87,0,1,0,2.64-2.63L62.68,56.8a4.23,4.23,0,0,0,1.88-1.23l2.15-2.16C69.54,50.59,69.49,47.56,67,45ZM79.71,32.3l-2.54-2.54c-2.52-2.52-5.56-2.57-8.38.26l-2,2c-2.83,2.83-2.78,5.86-.26,8.38L69.05,43c2.52,2.53,5.55,2.58,8.38-.25l2-2C82.27,37.85,82.23,34.82,79.71,32.3Z"/><path class="cls-2" d="M56.87,60.86a1.87,1.87,0,1,1-2.64,2.63l-5.35-5.35c-1-1-2-1-3.1.15l-2.14,2.14c-1.14,1.14-1.17,2.09-.16,3.1l5.35,5.36a1.78,1.78,0,0,1,.1,2.71,1.81,1.81,0,0,1-2.73-.08l-5.39-5.4c-2.53-2.53-2.57-5.56.26-8.39l2-2c2.83-2.83,5.85-2.78,8.38-.26ZM79.71,32.3c2.52,2.52,2.56,5.55-.27,8.38l-2,2c-2.83,2.83-5.86,2.78-8.38.25l-2.54-2.53C64,37.9,63.94,34.87,66.77,32l2-2c2.82-2.83,5.86-2.78,8.38-.26ZM77,34.88l-2.44-2.45c-1-1-2-1-3.11.16l-2.14,2.14c-1.14,1.14-1.17,2.09-.15,3.1l2.44,2.45c1,1,2,1,3.11-.15L76.88,38C78,36.85,78,35.89,77,34.88ZM67,45c2.52,2.53,2.57,5.56-.26,8.38l-2.15,2.16a4.23,4.23,0,0,1-1.88,1.23l1.88,1.87a1.87,1.87,0,1,1-2.64,2.63l-8.15-8.14c-2.52-2.53-2.57-5.56.27-8.38l2-2c2.83-2.83,5.86-2.79,8.38-.26Zm-2.68,2.59-2.44-2.45c-1-1-2-1-3.11.16L56.6,47.46c-1.14,1.14-1.16,2.1-.15,3.11L58.9,53c1,1,2,1,3.1-.15l2.14-2.14C65.28,49.59,65.31,48.63,64.29,47.62Z"/><path class="cls-2" d="M75.11,57.06c-3.37,3.37-3.37,7.23,0,10.6l33.48,33.49c3.38,3.38,7.24,3.38,10.62,0l33.48-33.49c3.37-3.37,3.37-7.23,0-10.6L119.21,23.57c-3.38-3.37-7.24-3.37-10.61,0Z"/><rect class="cls-3" width="187.09" height="124.72"/><path class="cls-4" d="M133.06,46.77c0-2.69-1.79-4.87-5.27-4.87H99.88c-3.4,0-5.14,2.13-5.14,4.74s1.74,4.75,5.14,4.75h21.64c.74,0,1.17.39,1.18,1.26v3.7c0,.87-.43,1.26-1.17,1.27H99.88c-3.4,0-5.14,2.14-5.14,4.75s1.74,4.75,5.14,4.75h21.64c.74,0,1.18.39,1.18,1.26v3.7c0,.87-.44,1.27-1.18,1.27H99.88c-3.4,0-5.14,2.13-5.14,4.74s1.74,4.75,5.14,4.75h27.91c3.48,0,5.27-2.18,5.27-4.88Z"/></svg>