<svg xmlns="http://www.w3.org/2000/svg" viewBox="0 0 517.44 346.66"><defs><style>.cls-1{fill:#e6e6e5;}.cls-2{fill:#d9151b;}.cls-3{fill:#fff;}</style></defs><g id="npo_ruit" data-name="npo ruit"><path class="cls-1" d="M228.7,305.48c4.25,4.23,4.11,8.25-.64,13l-9,9c-4.79,4.78-8.78,4.91-13,.64L195.8,317.85c-4.27-4.25-4.13-8.26.64-13l9-9c4.77-4.79,8.76-4.91,13-.66ZM165,348.63c-4.27-4.25-8.26-4.14-13.05.65l-9,9c-4.77,4.76-4.89,8.77-.63,13l10.26,10.27c4.27,4.26,8.24,4.13,13-.65l9-9c4.78-4.76,4.91-8.77.66-13ZM375.31,443,234.82,583.46c-14.14,14.15-30.36,14.15-44.49,0L49.86,443c-14.15-14.15-14.15-30.36,0-44.51L190.33,258c14.15-14.16,30.36-14.16,44.49,0L375.3,398.49C389.45,412.62,389.45,428.85,375.31,443ZM144.12,414.44,121.46,391.8c-10.58-10.59-23.27-10.79-35.15,1.09l-8.46,8.44C66,413.2,66.17,425.91,76.75,436.5l22.64,22.66c4,3.95,8.39,3.36,11.43.34s3.55-7.45-.4-11.37L88,425.66c-4.25-4.25-4.12-8.25.66-13l9-9c4.77-4.79,8.78-4.93,13-.66l22.44,22.44c3.94,4,8.33,3.43,11.36.4S148.06,418.39,144.12,414.44ZM186.51,348l-10.67-10.63c-10.57-10.58-23.28-10.78-35.14,1.1L132.24,347c-11.87,11.86-11.69,24.56-1.11,35.15l34.2,34.19c3.95,3.92,8.4,3.35,11.43.32s3.55-7.41-.39-11.36l-7.87-7.85c2.14-.45,4.77-2.09,7.87-5.18l9-9C197.28,371.34,197.08,358.64,186.51,348Zm53.42-53.41L229.26,284c-10.56-10.59-23.28-10.78-35.14,1.1l-8.45,8.45c-11.88,11.87-11.68,24.57-1.12,35.16l10.66,10.63c10.58,10.61,23.29,10.79,35.15-1.07l8.45-8.47C250.69,317.92,250.5,305.22,239.93,294.63Z" transform="translate(-39.25 -247.41)"/></g><g id="npo"><path class="cls-2" d="M144.12,414.44c3.94,3.95,3.36,8.38.31,11.42s-7.42,3.56-11.36-.4L110.63,403c-4.25-4.27-8.26-4.13-13,.66l-9,9c-4.78,4.77-4.91,8.77-.66,13l22.45,22.47c4,3.92,3.42,8.32.4,11.37s-7.47,3.61-11.43-.34L76.75,436.5c-10.58-10.59-10.77-23.3,1.1-35.17l8.46-8.44c11.88-11.88,24.57-11.68,35.15-1.09Zm95.81-119.81c10.57,10.59,10.76,23.29-1.12,35.16l-8.45,8.47c-11.86,11.86-24.57,11.68-35.15,1.07L184.55,328.7c-10.56-10.59-10.76-23.29,1.12-35.16l8.45-8.45C206,273.21,218.7,273.4,229.26,284ZM228.7,305.48,218.44,295.2c-4.27-4.25-8.26-4.13-13,.66l-9,9c-4.77,4.76-4.91,8.77-.64,13l10.25,10.26c4.26,4.27,8.25,4.14,12.15.25l9-9c5.65-5.66,5.79-9.68,1.54-13.91M186.51,348c10.57,10.6,10.77,23.3-1.11,35.16l-9,9c-3.1,3.09-5.73,4.73-7.87,5.18l7.87,7.85c3.94,4,3.43,8.32.39,11.36s-7.48,3.6-11.43-.32l-34.2-34.19c-10.58-10.59-10.76-23.29,1.11-35.15l8.46-8.46c11.86-11.88,24.57-11.68,35.14-1.1ZM175.28,358.9,165,348.63c-4.27-4.25-8.26-4.14-13.05.65l-9,9c-4.77,4.76-4.89,8.77-.63,13l10.26,10.27c4.27,4.26,8.24,4.13,13-.65l9-9c4.78-4.76,4.91-8.77.66-13" transform="translate(-39.25 -247.41)"/></g><g id="ruit_kleur" data-name="ruit kleur"><path class="cls-2" d="M220.63,398.49c-14.14,14.14-14.14,30.35,0,44.49L361.11,583.46c14.14,14.15,30.36,14.15,44.51,0L546.09,443c14.14-14.14,14.12-30.36,0-44.49L405.62,258c-14.15-14.16-30.37-14.16-44.5,0Z" transform="translate(-39.25 -247.41)"/></g><g id="kanaal"><path class="cls-3" d="M254.89,402.83a4.76,4.76,0,0,1,.64-2.61,4.92,4.92,0,0,1,2.82-1.65,28.44,28.44,0,0,1,3-.61c1.17-.18,2.41-.34,3.7-.48s2.54-.23,3.78-.28,2.33-.08,3.3-.08q9.5,0,14.16,4.18t4.67,14.17V435.1q0,3.54-3.54,3.54h-2.58q-3.54,0-3.54-3.54V418.44a48,48,0,0,0-.28-5.55,9.55,9.55,0,0,0-1.33-4.06,6.5,6.5,0,0,0-3-2.5,14.26,14.26,0,0,0-5.44-.84c-1.07,0-2.25.05-3.54.16a19.61,19.61,0,0,0-3.14.48v29q0,3.54-3.54,3.54h-2.57q-3.54,0-3.54-3.54Z" transform="translate(-39.25 -247.41)"/><path class="cls-3" d="M301.56,386.5a5.59,5.59,0,0,1,1.65-4.19,6.56,6.56,0,0,1,8.61,0,6.13,6.13,0,0,1,0,8.37,6.56,6.56,0,0,1-8.61,0A5.58,5.58,0,0,1,301.56,386.5Zm1.13,15q0-3.54,3.54-3.54h2.57q3.56,0,3.55,3.54V435.1q0,3.54-3.55,3.54h-2.57q-3.54,0-3.54-3.54Z" transform="translate(-39.25 -247.41)"/><path class="cls-3" d="M358.05,432.85a5.13,5.13,0,0,1,.41,1.77c0,1.4-.81,2.39-2.42,3a24.65,24.65,0,0,1-6,1.49,54.49,54.49,0,0,1-6.2.36q-10.55,0-15.85-5.43t-5.32-15.74a26.9,26.9,0,0,1,1.54-9.57,18.13,18.13,0,0,1,4.15-6.6,16.1,16.1,0,0,1,6.09-3.78,22,22,0,0,1,7.34-1.21q8.55,0,13.59,5.19t5,15.41a3.09,3.09,0,0,1-.89,2.5,3.13,3.13,0,0,1-2,.72h-25a12.8,12.8,0,0,0,.81,4.06,8.48,8.48,0,0,0,2.21,3.26,10,10,0,0,0,3.86,2.13,18.36,18.36,0,0,0,5.68.77,21.55,21.55,0,0,0,4.26-.4,30.72,30.72,0,0,0,3.71-1,6.3,6.3,0,0,1,1.84-.4q1.77,0,2.82,2.49Zm-7.32-18.67a11.83,11.83,0,0,0-2.65-7.28,8.27,8.27,0,0,0-6.52-2.62,8,8,0,0,0-6.44,2.62,12.54,12.54,0,0,0-2.66,7.28Z" transform="translate(-39.25 -247.41)"/><path class="cls-3" d="M370,401.46q0-3.54,3.54-3.54h2.58q3.54,0,3.54,3.54V418.2a47,47,0,0,0,.28,5.47,10.43,10.43,0,0,0,1.25,4.07,6.28,6.28,0,0,0,2.9,2.53,12.84,12.84,0,0,0,5.31.89A33.47,33.47,0,0,0,393,431a24,24,0,0,0,3.1-.52v-29q0-3.54,3.54-3.54h2.58q3.54,0,3.54,3.54v32.36a4.08,4.08,0,0,1-.77,2.77,5.91,5.91,0,0,1-2.7,1.41,21.46,21.46,0,0,1-3.05.64c-1.13.16-2.3.31-3.5.45s-2.42.22-3.63.28-2.29.08-3.25.08a30.48,30.48,0,0,1-8.29-1,14.15,14.15,0,0,1-5.88-3.18,13.25,13.25,0,0,1-3.5-5.63,26.59,26.59,0,0,1-1.17-8.45Z" transform="translate(-39.25 -247.41)"/><path class="cls-3" d="M414.63,402.51c-.11-.32-.23-.7-.36-1.13a3.46,3.46,0,0,1-.21-1,2.32,2.32,0,0,1,.69-1.73,3,3,0,0,1,2.21-.69h3.14a4.49,4.49,0,0,1,2.73.77,4.83,4.83,0,0,1,1.61,2.61l7.73,26.08,8.29-26.08a5.08,5.08,0,0,1,1.53-2.61,4,4,0,0,1,2.57-.77h3.38a3.92,3.92,0,0,1,2.5.77A5.22,5.22,0,0,1,452,401.3l8.29,26.08L468,401.3a4.89,4.89,0,0,1,1.61-2.61,4.54,4.54,0,0,1,2.74-.77h2.81a3,3,0,0,1,2.22.69,2.35,2.35,0,0,1,.68,1.73,3.73,3.73,0,0,1-.2,1c-.13.43-.26.81-.36,1.13l-11.35,32.75a5.44,5.44,0,0,1-1.65,2.62,4.5,4.5,0,0,1-2.78.76h-3.13a4.64,4.64,0,0,1-2.86-.76,5,5,0,0,1-1.57-2.62L446,409.83,438,435.26a5,5,0,0,1-1.56,2.62,4.37,4.37,0,0,1-2.7.76h-3.22a4.66,4.66,0,0,1-2.86-.76,5.44,5.44,0,0,1-1.65-2.62Z" transform="translate(-39.25 -247.41)"/><path class="cls-3" d="M484.16,431.64c.7-1.66,1.63-2.49,2.81-2.49a6.4,6.4,0,0,1,1.86.4,35.76,35.76,0,0,0,4.74,1.33,25,25,0,0,0,5.15.52q4.27,0,6.24-1.08a3.45,3.45,0,0,0,2-3.19,3.13,3.13,0,0,0-2.05-3.17,32.09,32.09,0,0,0-5.35-1.57c-2.2-.49-4.25-1-6.16-1.53a19,19,0,0,1-4.95-2.13,10.3,10.3,0,0,1-3.34-3.42,10.48,10.48,0,0,1-1.24-5.4,11.12,11.12,0,0,1,4.46-9.41q4.45-3.37,13.08-3.38a40.06,40.06,0,0,1,5.55.4,25.55,25.55,0,0,1,5.64,1.45,3.05,3.05,0,0,1,2.33,2.9,5.32,5.32,0,0,1-.4,1.77l-.4,1c-.7,1.67-1.64,2.5-2.82,2.5a6.38,6.38,0,0,1-1.85-.41,30.14,30.14,0,0,0-4.27-1.12,22,22,0,0,0-4-.4,12.5,12.5,0,0,0-5.68,1,3.38,3.38,0,0,0-2,3.14,2.93,2.93,0,0,0,1.73,2.9,30.57,30.57,0,0,0,5.6,1.69q3.21.72,6.11,1.57a19.7,19.7,0,0,1,5,2.17,10,10,0,0,1,3.38,3.46,10.64,10.64,0,0,1,1.25,5.43,11.32,11.32,0,0,1-4.4,9.46q-4.4,3.42-13.51,3.42a53.23,53.23,0,0,1-6.78-.44,27.46,27.46,0,0,1-6.29-1.57c-1.56-.59-2.34-1.56-2.34-2.9a5.32,5.32,0,0,1,.4-1.77Z" transform="translate(-39.25 -247.41)"/></g></svg>