<svg xmlns="http://www.w3.org/2000/svg" viewBox="0 0 517.44 346.66"><defs><style>.cls-1{fill:#e6e6e5;}.cls-2{fill:#d9151b;}.cls-3{fill:#fff;}</style></defs><g id="npo_ruit" data-name="npo ruit"><path class="cls-1" d="M228.7,305.48c4.25,4.23,4.11,8.25-.65,13l-9,9c-4.79,4.78-8.78,4.92-13,.65L195.8,317.85c-4.27-4.24-4.13-8.25.64-13l9-9c4.77-4.78,8.76-4.91,13-.66ZM165,348.63c-4.26-4.25-8.25-4.14-13,.65l-9,9c-4.77,4.76-4.89,8.78-.63,13l10.26,10.27c4.27,4.26,8.24,4.13,13-.64l9-9c4.77-4.75,4.91-8.77.66-13ZM375.31,443,234.82,583.46c-14.14,14.15-30.36,14.15-44.49,0L49.86,443c-14.15-14.15-14.15-30.36,0-44.5L190.33,258c14.15-14.16,30.35-14.16,44.49,0L375.3,398.5C389.45,412.63,389.45,428.85,375.31,443ZM144.12,414.44,121.46,391.8c-10.58-10.59-23.27-10.78-35.15,1.09l-8.46,8.44C66,413.21,66.17,425.92,76.75,436.5l22.64,22.66c4,3.95,8.39,3.36,11.43.34s3.55-7.45-.4-11.37L88,425.66c-4.25-4.24-4.12-8.25.66-13l9-9c4.76-4.79,8.78-4.92,13-.65l22.44,22.43c3.93,4,8.33,3.43,11.36.4S148.05,418.39,144.12,414.44Zm42.39-66.39-10.67-10.64c-10.58-10.58-23.28-10.77-35.14,1.1L132.24,347c-11.87,11.86-11.69,24.56-1.11,35.15l34.2,34.19c3.95,3.93,8.39,3.35,11.43.32s3.55-7.4-.39-11.36l-7.87-7.85c2.14-.45,4.77-2.08,7.87-5.17l9-9C197.28,371.34,197.08,358.64,186.51,348.05Zm53.42-53.42L229.26,284c-10.56-10.59-23.28-10.77-35.14,1.1l-8.45,8.46c-11.88,11.86-11.68,24.56-1.12,35.15l10.66,10.63c10.58,10.61,23.29,10.8,35.15-1.07l8.45-8.47C250.69,317.92,250.5,305.22,239.93,294.63Z" transform="translate(-39.25 -247.41)"/></g><g id="npo"><path class="cls-2" d="M144.12,414.44c3.93,3.95,3.36,8.38.31,11.42s-7.43,3.56-11.36-.4L110.63,403c-4.25-4.27-8.27-4.14-13,.65l-9,9c-4.78,4.77-4.91,8.78-.66,13l22.45,22.47c4,3.92,3.42,8.32.4,11.37s-7.47,3.61-11.43-.34L76.75,436.5c-10.58-10.58-10.77-23.29,1.1-35.17l8.46-8.44c11.88-11.87,24.57-11.68,35.15-1.09Zm95.81-119.81c10.57,10.59,10.76,23.29-1.12,35.16l-8.45,8.47c-11.86,11.87-24.57,11.68-35.15,1.07L184.55,328.7c-10.56-10.59-10.76-23.29,1.12-35.15l8.45-8.46C206,273.22,218.7,273.4,229.26,284ZM228.7,305.48,218.44,295.2c-4.27-4.25-8.26-4.12-13,.66l-9,9c-4.77,4.77-4.91,8.78-.64,13l10.25,10.27c4.26,4.27,8.25,4.13,12.15.24l9-9c5.65-5.66,5.79-9.68,1.54-13.91m-42.19,42.57c10.57,10.59,10.77,23.29-1.11,35.16l-9,9c-3.1,3.09-5.73,4.72-7.87,5.17l7.87,7.85c3.94,4,3.43,8.32.39,11.36s-7.48,3.61-11.43-.32l-34.2-34.19c-10.58-10.59-10.76-23.29,1.11-35.15l8.46-8.46c11.86-11.87,24.56-11.68,35.14-1.1ZM175.28,358.9,165,348.63c-4.26-4.25-8.25-4.14-13,.65l-9,9c-4.77,4.76-4.89,8.78-.63,13l10.26,10.27c4.27,4.26,8.24,4.13,13-.64l9-9c4.77-4.75,4.91-8.77.66-13" transform="translate(-39.25 -247.41)"/></g><g id="ruit_kleur" data-name="ruit kleur"><path class="cls-2" d="M220.63,398.49c-14.14,14.14-14.14,30.35,0,44.5L361.11,583.46c14.14,14.15,30.36,14.15,44.51,0L546.09,443c14.14-14.15,14.12-30.37,0-44.5L405.62,258c-14.15-14.16-30.37-14.16-44.5,0Z" transform="translate(-39.25 -247.41)"/></g><g id="kanaal"><path class="cls-3" d="M250,402.91c0-2.65,1.28-3.7,3.3-4.34,2.65-.89,8.12-1.45,11.91-1.45,14.48,0,22.05,8.05,22.05,21,0,13.2-7.89,21.33-20.77,21.33a24.07,24.07,0,0,1-6.84-.89v11c0,2.49-1,3.54-3.54,3.54h-2.57c-2.5,0-3.54-1.05-3.54-3.54Zm9.65,27.44a19.71,19.71,0,0,0,5.72.81c8.45,0,12.07-5.15,12.07-12.88s-3.62-12.87-12.07-12.87a20.08,20.08,0,0,0-5.72.8Z" transform="translate(-39.25 -247.41)"/><path class="cls-3" d="M294.11,418.28c0-13.76,8-21.16,20.2-21.16s20.2,7.4,20.2,21.16-8,21.17-20.2,21.17S294.11,432.12,294.11,418.28Zm30.58,0c0-8.21-3.7-12.87-10.38-12.87s-10.38,4.66-10.38,12.87,3.7,12.88,10.38,12.88S324.69,426.57,324.69,418.28Z" transform="translate(-39.25 -247.41)"/><path class="cls-3" d="M342.27,385.05c0-2.5,1.05-3.55,3.54-3.55h2.58c2.49,0,3.54,1.05,3.54,3.55V435.1c0,2.5-1.05,3.54-3.54,3.54h-2.58c-2.49,0-3.54-1-3.54-3.54Z" transform="translate(-39.25 -247.41)"/><path class="cls-3" d="M368.44,380.7a5.8,5.8,0,1,1-6,5.79A5.57,5.57,0,0,1,368.44,380.7Zm-4.83,20.76c0-2.49,1.05-3.54,3.54-3.54h2.58c2.49,0,3.54,1.05,3.54,3.54V435.1c0,2.5-1,3.54-3.54,3.54h-2.58c-2.49,0-3.54-1-3.54-3.54Z" transform="translate(-39.25 -247.41)"/><path class="cls-3" d="M386.81,406.13h-3c-2.49,0-3.54-1.05-3.54-3.54v-1.13c0-2.49,1-3.54,3.54-3.54h3v-6.6c0-2.49,1.05-3.54,3.54-3.54h2.58c2.49,0,3.54,1.05,3.54,3.54v6.6h10c2.5,0,3.54,1.05,3.54,3.54v1.13c0,2.49-1,3.54-3.54,3.54h-10v16.58c0,6.76,2.74,8.45,7.4,8.45a18.6,18.6,0,0,0,2.18-.16,12.27,12.27,0,0,1,1.53-.16c1.28,0,2,.56,2.33,2.09l.32,1.53a11.18,11.18,0,0,1,.24,1.61c0,1.53-.88,2.49-2.65,2.82a30,30,0,0,1-5.39.56c-10.06,0-15.62-4.67-15.62-15.78Z" transform="translate(-39.25 -247.41)"/><path class="cls-3" d="M423.36,380.7a5.8,5.8,0,1,1-6,5.79A5.57,5.57,0,0,1,423.36,380.7Zm-4.83,20.76c0-2.49,1-3.54,3.54-3.54h2.57c2.5,0,3.54,1.05,3.54,3.54V435.1c0,2.5-1,3.54-3.54,3.54h-2.57c-2.5,0-3.54-1-3.54-3.54Z" transform="translate(-39.25 -247.41)"/><path class="cls-3" d="M472.1,432.85a5.1,5.1,0,0,1,.4,1.77,3.2,3.2,0,0,1-2.41,3,35,35,0,0,1-12.24,1.85c-14,0-21.16-7.49-21.16-21.17,0-14.89,8.77-21.16,19.07-21.16,11.35,0,18.59,7,18.59,20.6,0,2.33-1.37,3.22-2.89,3.22H446.51c.16,5.87,3.7,10.22,12.55,10.22a26.29,26.29,0,0,0,8-1.37,6,6,0,0,1,1.85-.4c1.29,0,2.09.8,2.82,2.49Zm-7.33-18.67c-.4-6.2-3.62-9.9-9.17-9.9s-8.61,3.7-9.09,9.9Z" transform="translate(-39.25 -247.41)"/><path class="cls-3" d="M482.78,385.05c0-2.5,1.05-3.55,3.54-3.55h2.58c2.49,0,3.54,1.05,3.54,3.55v30.18l13-14.65a6.87,6.87,0,0,1,5.79-2.66h3.62c1.45,0,2.17.73,2.17,1.69a4.22,4.22,0,0,1-1.44,2.58L501.77,417.4l14.09,17.06A4,4,0,0,1,517,437a1.72,1.72,0,0,1-1.93,1.69h-4.91c-1.93,0-3.46-.72-5.07-2.81l-12.63-16V435.1c0,2.5-1.05,3.54-3.54,3.54h-2.58c-2.49,0-3.54-1-3.54-3.54Z" transform="translate(-39.25 -247.41)"/></g></svg>